Coordinates
version=1
nRows=11
nColumns=36
inDegrees=yes

Units are S.I. units (second, meters, Newtons, ...)
If the header above contains a line with 'inDegrees', this indicates whether rotational values are in degrees (yes) or radians (no).

endheader
time	pelvis_tilt	pelvis_list	pelvis_rotation	pelvis_tx	pelvis_ty	pelvis_tz	hip_flexion_r	hip_adduction_r	hip_rotation_r	knee_angle_r	knee_angle_r_beta	ankle_angle_r	subtalar_angle_r	mtp_angle_r	hip_flexion_l	hip_adduction_l	hip_rotation_l	knee_angle_l	knee_angle_l_beta	ankle_angle_l	subtalar_angle_l	mtp_angle_l	lumbar_extension	lumbar_bending	lumbar_rotation	arm_flex_r	arm_add_r	arm_rot_r	elbow_flex_r	pro_sup_r	arm_flex_l	arm_add_l	arm_rot_l	elbow_flex_l	pro_sup_l
      1.66000000	    -23.82832273	     -1.16770675	    -12.29969257	     -0.31145541	      0.80200131	     -0.51885969	     86.26794966	      6.92869675	      5.27471186	     95.97569703	      1.67509192	     20.76793898	     -9.36227334	     -7.24178472	     78.49443357	    -16.52316449	     16.62058871	     97.14333254	      1.69547100	     20.37988082	    -27.99923133	     -7.24178472	    -37.08831045	     -7.63259479	     11.58494858	    100.82908057	    -25.29464459	     36.83684224	     97.13803073	    110.37925725	     81.88732809	    -23.29273261	     25.75454788	    105.24923560	    109.71022709
      1.67000000	    -23.02574438	     -0.98522601	    -12.35803629	     -0.30668286	      0.81241854	     -0.51964957	     84.39087753	      7.05335728	      5.87819864	     94.91292662	      1.65654307	     20.38095556	     -9.58562105	     -7.24359088	     76.28837048	    -16.13052726	     15.99960035	     95.92237033	      1.67416119	     20.05712745	    -28.36449902	     -7.24359088	    -36.34628970	     -7.47884376	     11.94374127	    100.79735137	    -26.29142967	     36.50523427	     98.20845489	    110.38400030	     82.58836124	    -24.80481010	     25.67216631	    105.55182130	    109.62632849
      1.68000000	    -21.97758850	     -0.51198099	    -12.41217408	     -0.30176271	      0.82353662	     -0.52052833	     82.30317334	      6.98753572	      6.73401803	     93.81986123	      1.63746548	     19.88693500	    -10.08166313	     -7.24632737	     73.66337545	    -15.55620219	     15.01191974	     94.52216924	      1.64972307	     19.59245090	    -29.04607802	     -7.24632737	    -35.84002560	     -7.74727705	     12.23611019	    101.15376759	    -27.61244795	     35.94199603	     99.12508207	    110.33267363	     84.09412287	    -26.20643083	     26.06123440	    105.68734893	    109.48390639
      1.69000000	    -21.01408733	      0.09003750	    -12.46102430	     -0.29662275	      0.83476948	     -0.52140094	     80.28516554	      6.76751498	      7.61083076	     92.68917105	      1.61773122	     19.28055948	    -10.74414835	     -7.25288141	     71.08872473	    -14.92736941	     13.89574441	     92.98797565	      1.62294634	     18.83801130	    -29.92245819	     -7.25288141	    -35.07110026	     -8.09623618	     12.59554587	    101.56604954	    -29.17038046	     35.47649288	    100.03141578	    110.06831655	     85.84869510	    -27.49172953	     26.70736286	    105.33076746	    109.01680233
      1.70000000	    -20.03550694	      0.45302930	    -12.53487673	     -0.29103309	      0.84645580	     -0.52214888	     78.09978645	      6.55427478	      8.22436380	     91.44928586	      1.59609114	     19.04358684	    -10.98573063	     -7.25542027	     68.48759445	    -14.49769265	     12.94992791	     91.38093809	      1.59489824	     18.71748042	    -30.13879395	     -7.25542027	    -34.34530958	     -8.09524571	     12.92918749	    102.31835697	    -30.43954933	     35.20381640	    100.91781322	    109.94269082	     87.36730147	    -29.07743097	     26.71660430	    105.40292045	    108.81676455
      1.71000000	    -18.96107590	      1.13203175	    -12.61982809	     -0.28535516	      0.85857375	     -0.52278906	     75.87250353	      6.14224262	      9.13995346	     90.15522248	      1.57350547	     18.62274067	    -11.37329774	     -7.26282164	     65.67650083	    -13.90833034	     11.58154813	     89.51821648	      1.56238762	     18.21497670	    -30.76876718	     -7.26282164	    -33.57704354	     -8.51204928	     13.37818055	    103.39842775	    -32.16783854	     35.07252115	    101.47889277	    109.60732195	     89.67809251	    -30.32046851	     27.66545161	    104.77360182	    108.31035853
      1.72000000	    -18.00850442	      1.42962567	    -12.80742827	     -0.27910201	      0.87112232	     -0.52303710	     73.55567706	      5.91738795	      9.70613377	     88.65388752	      1.54730223	     18.37796183	    -11.40557406	     -7.26551826	     62.96307327	    -13.70413273	     10.47684915	     87.59475421	      1.52881687	     18.21042298	    -30.95911609	     -7.26551826	    -32.67020050	     -8.45922788	     13.91324335	    104.46737655	    -33.52247939	     34.95778402	    102.16293918	    109.44063032	     91.53590842	    -32.02651984	     28.08029922	    104.67436409	    108.08893456
      1.73000000	    -16.95889514	      1.94554484	    -12.96324330	     -0.27284308	      0.88420332	     -0.52326128	     71.18539744	      5.42936074	     10.36039386	     87.09688598	      1.52012743	     18.07576971	    -11.58856147	     -7.27095039	     60.11708074	    -13.34065625	      9.10426207	     85.47612136	      1.49183975	     17.74536455	    -31.31155191	     -7.27095039	    -31.80240704	     -8.69910347	     14.48024980	    105.91230876	    -35.25829133	     35.07826474	    102.59385107	    109.12498104	     94.09845584	    -33.47278852	     29.42632867	    104.10427987	    107.64004136
      1.74000000	    -16.00407268	      2.24547249	    -13.11032768	     -0.26618764	      0.89799019	     -0.52335105	     68.76154076	      4.97451194	     10.74151803	     85.35612511	      1.48974542	     17.73695238	    -11.70146105	     -7.27563620	     57.34819372	    -13.14508465	      7.96085808	     83.24549580	      1.45290799	     17.21463236	    -31.37597585	     -7.27563620	    -30.86780664	     -8.64832835	     15.06363081	    107.48750911	    -36.92381869	     35.41054506	    103.07294413	    108.84920879	     96.47989758	    -35.20693722	     30.60528605	    103.91241361	    107.22825485
      1.75000000	    -15.16111733	      2.41071067	    -13.22486722	     -0.25917970	      0.91243367	     -0.52335000	     66.32273627	      4.53695219	     10.99138884	     83.42517855	      1.45604404	     17.20454972	    -11.75927614	     -7.28037752	     54.70687059	    -13.12409668	      6.85790674	     80.90090372	      1.41198714	     16.47546149	    -31.24082734	     -7.28037752	    -29.85130448	     -8.43192863	     15.61688008	    109.12865024	    -38.71980400	     35.91765889	    103.84847114	    108.59902884	     98.90082177	    -37.13706538	     32.01919199	    103.93466087	    106.82884152
      1.76000000	    -14.47437456	      2.40777976	    -13.38030814	     -0.25187222	      0.92762297	     -0.52308444	     63.92212897	      4.20366946	     11.06154661	     81.26010820	      1.41825644	     16.43594070	    -11.63046879	     -7.28336951	     52.14755484	    -13.30888616	      5.81763001	     78.40807644	      1.36847909	     15.63507051	    -30.84783436	     -7.28336951	    -28.70477714	     -8.06044606	     16.20802927	    110.58736567	    -40.52733328	     36.31250065	    104.87908512	    108.45146284	    101.30476536	    -39.21046622	     33.50099332	    104.29426508	    106.63812339
